<svg width="16" height="18" viewBox="0 0 30 32" fill="none" xmlns="http://www.w3.org/2000/svg">
<path d="M23.5821 1.73926L24.22 3.47705C26.7009 4.31816 28.3923 5.58347 28.3923 7.31834C28.3923 10.8364 21.4493 12.4352 15.0008 12.4352C8.55072 12.4352 1.61091 10.8364 1.61091 7.31834C1.61091 5.45767 3.56011 4.13823 6.34377 3.30152L6.9688 1.59737C3.03335 2.54379 0 4.34302 0 7.31688V10.6286C0 12.4191 1.10347 13.7809 2.8352 14.7903L3.47151 28.343C3.47151 30.3617 8.74564 32 15.2505 32C21.7554 32 27.0311 30.3617 27.0311 28.343L27.6835 14.4568C29.1092 13.4855 30 12.2333 30 10.6286V7.31541C30.0032 4.48199 27.2453 2.71933 23.5821 1.73926ZM7.90313 28.621C7.13634 28.2026 6.25678 27.3834 6.02481 26.8115C4.40262 22.7742 4.84884 19.6146 5.17103 15.8259C6.37599 16.2355 7.71626 16.5456 9.11776 16.7665C8.77141 20.6546 8.42507 23.9678 9.1242 28.2172C9.23052 28.8433 8.66831 29.0364 7.90474 28.6224L7.90313 28.621ZM17.7716 28.9164C17.7394 29.5659 16.6568 30.1671 15.3262 30.1671C13.9924 30.1671 12.9131 29.563 12.8825 28.912C12.6795 24.5295 12.8309 21.1271 12.992 17.1512C13.6654 17.1849 14.3371 17.2068 14.9992 17.2068C15.8723 17.2068 16.7648 17.1775 17.6572 17.119C17.8183 21.1125 17.9729 24.5208 17.77 28.915L17.7716 28.9164ZM24.6276 26.8129C24.3972 27.3864 23.5161 28.2026 22.7509 28.6195C21.9889 29.0349 21.4364 28.8389 21.5379 28.2158C22.2418 23.9298 21.8826 20.5976 21.5298 16.6656C22.9474 16.411 24.2813 16.0556 25.4605 15.5977C25.7859 19.4888 26.282 22.6952 24.6292 26.8144L24.6276 26.8129ZM8.2978 7.24227C8.70394 7.36389 9.14654 7.33481 9.52916 7.16136C9.91178 6.98792 10.2034 6.68417 10.3404 6.31633H10.3372L11.5776 2.92704H18.9234L20.167 6.31487C20.3033 6.68212 20.5942 6.98547 20.976 7.15868C21.3578 7.33189 21.7995 7.36089 22.2048 7.23935C22.4057 7.17883 22.5916 7.08295 22.7517 6.95717C22.9117 6.8314 23.043 6.67821 23.1378 6.50636C23.2327 6.3345 23.2893 6.14735 23.3044 5.95562C23.3196 5.76388 23.293 5.57131 23.2261 5.38892L21.612 1.00055C21.5055 0.710098 21.3012 0.457318 21.0281 0.27782C20.755 0.0983216 20.4268 0.00115155 20.0897 0H10.421C9.73151 0 9.11292 0.402267 8.89384 0.999086L7.28293 5.38746C7.00102 6.15396 7.45691 6.9819 8.2978 7.23935V7.24227Z" fill="white"/>
</svg>
